<svg xmlns="http://www.w3.org/2000/svg" viewBox="0 0 64 64">
  <defs>
    <linearGradient id="bg" x1="10" y1="8" x2="54" y2="58" gradientUnits="userSpaceOnUse">
      <stop offset="0" stop-color="#07131b"/>
      <stop offset="1" stop-color="#03070b"/>
    </linearGradient>
    <linearGradient id="globe" x1="16" y1="14" x2="46" y2="50" gradientUnits="userSpaceOnUse">
      <stop offset="0" stop-color="#69e3ff"/>
      <stop offset="1" stop-color="#85ffb8"/>
    </linearGradient>
  </defs>
  <rect x="4" y="4" width="56" height="56" rx="16" fill="url(#bg)"/>
  <circle cx="32" cy="32" r="18" fill="rgba(105,227,255,0.14)" stroke="url(#globe)" stroke-width="2.5"/>
  <path d="M14 32h36" stroke="url(#globe)" stroke-width="2" stroke-linecap="round" opacity="0.95"/>
  <path d="M32 14c-5.5 5.2-8.5 11.2-8.5 18s3 12.8 8.5 18c5.5-5.2 8.5-11.2 8.5-18s-3-12.8-8.5-18Z" fill="none" stroke="url(#globe)" stroke-width="2" stroke-linejoin="round"/>
  <path d="M18.5 23.5c4 2.2 8.6 3.3 13.5 3.3s9.5-1.1 13.5-3.3" fill="none" stroke="url(#globe)" stroke-width="2" stroke-linecap="round" opacity="0.9"/>
  <path d="M18.5 40.5c4-2.2 8.6-3.3 13.5-3.3s9.5 1.1 13.5 3.3" fill="none" stroke="url(#globe)" stroke-width="2" stroke-linecap="round" opacity="0.9"/>
</svg>
